<svg style="background-color:white" 
width="116mm" height="116mm" viewBox="0 0 116 116" xmlns="http://www.w3.org/2000/svg"><g id="svgGroup" stroke-linecap="round" fill-rule="evenodd" font-size="9pt" stroke="#000" stroke-width="0.25mm" fill="none" style="stroke:#000;stroke-width:0.25mm;fill:none"><path d="M 2.823 60.308 L 14.882 3.576 L 33.467 7.526 L 34.454 2.88 L 53.039 6.83 L 54.027 2.184 L 73.59 6.342 L 72.602 10.988 L 91.187 14.939 L 90.594 17.726 L 109.179 21.677 L 97.49 76.669 L 112.772 89.492 L 93.488 112.473 L 78.167 99.617 L 79.785 97.69 L 63.388 89.693 L 44.069 85.586 L 48.227 66.023 L 67.79 70.181 L 64.665 84.882 L 71.292 71.295 L 89.268 80.063 L 81.9 95.169 L 96.138 78.201 L 77.557 74.251 L 78.15 71.463 L 59.565 67.513 L 60.553 62.867 L 42.946 59.124 L 41.958 63.771 L 23.374 59.82 L 22.386 64.467 L 2.823 60.308 Z M 0 105 L 0 2 A 2 2 0 0 1 2 0 L 114 0 A 2 2 0 0 1 116 2 L 116 114 A 2 2 0 0 1 114 116 L 73.828 116 A 2 2 0 0 1 72.414 115.414 L 64.586 107.586 A 2 2 0 0 0 63.172 107 L 2 107 A 2 2 0 0 1 0 105 Z M 2 103 L 2 4 A 2 2 0 0 1 4 2 L 112 2 A 2 2 0 0 1 114 4 L 114 112 A 2 2 0 0 1 112 114 L 74.828 114 A 2 2 0 0 1 73.414 113.414 L 65.586 105.586 A 2 2 0 0 0 64.172 105 L 4 105 A 2 2 0 0 1 2 103 Z M 57.5 105 A 1 1 0 0 0 58.5 104 L 58.5 95.414 A 1 1 0 0 0 58.207 94.707 L 53.714 90.214 A 1 1 0 0 0 53.203 89.941 L 44.304 88.161 A 1 1 0 0 1 43.5 87.18 L 43.5 76.414 A 1 1 0 0 0 43.207 75.707 L 34.793 67.293 A 1 1 0 0 0 34.086 67 L 13 67 A 1 1 0 0 0 12 68 L 12 104 A 1 1 0 0 0 13 105 M 9 8 m -2.5 0 a 2.5 2.5 0 0 1 5 0 a 2.5 2.5 0 0 1 -5 0 z M 90 8 m -2.5 0 a 2.5 2.5 0 0 1 5 0 a 2.5 2.5 0 0 1 -5 0 z M 103 74 m -2.5 0 a 2.5 2.5 0 0 1 5 0 a 2.5 2.5 0 0 1 -5 0 z M 69 102 m -2.5 0 a 2.5 2.5 0 0 1 5 0 a 2.5 2.5 0 0 1 -5 0 z M 41 69 m -2.5 0 a 2.5 2.5 0 0 1 5 0 a 2.5 2.5 0 0 1 -5 0 z M 9 102 m -2.5 0 a 2.5 2.5 0 0 1 5 0 a 2.5 2.5 0 0 1 -5 0 z M 9 8 m -1.5 0 a 1.5 1.5 0 0 1 3 0 a 1.5 1.5 0 0 1 -3 0 z M 90 8 m -1.5 0 a 1.5 1.5 0 0 1 3 0 a 1.5 1.5 0 0 1 -3 0 z M 103 74 m -1.5 0 a 1.5 1.5 0 0 1 3 0 a 1.5 1.5 0 0 1 -3 0 z M 69 102 m -1.5 0 a 1.5 1.5 0 0 1 3 0 a 1.5 1.5 0 0 1 -3 0 z M 41 69 m -1.5 0 a 1.5 1.5 0 0 1 3 0 a 1.5 1.5 0 0 1 -3 0 z M 9 102 m -1.5 0 a 1.5 1.5 0 0 1 3 0 a 1.5 1.5 0 0 1 -3 0 z" vector-effect="non-scaling-stroke"/></g></svg>