<svg width="116mm" height="116.2mm" viewBox="0 0 116 116.2" xmlns="http://www.w3.org/2000/svg"><g id="svgGroup" stroke-linecap="round" fill-rule="evenodd" font-size="9pt" stroke="#000" stroke-width="0.25mm" fill="none" style="stroke:#000;stroke-width:0.25mm;fill:none"><path d="M 2.526 60.501 L 14.689 3.279 L 33.274 7.23 L 34.262 2.583 L 52.847 6.534 L 53.834 1.887 L 73.886 6.15 L 72.899 10.796 L 91.483 14.746 L 90.891 17.534 L 109.476 21.484 L 97.795 76.435 L 113.204 89.365 L 93.439 112.921 L 77.735 99.744 L 79.387 97.774 L 63.306 89.931 L 43.772 85.779 L 48.034 65.727 L 68.086 69.989 L 65.333 82.942 L 71.177 70.961 L 77.36 73.977 L 77.853 71.656 L 59.268 67.706 L 60.256 63.059 L 43.138 59.421 L 42.151 64.067 L 23.566 60.117 L 22.579 64.763 L 2.526 60.501 Z M 0 105.2 L 0 2 A 2 2 0 0 1 2 0 L 114 0 A 2 2 0 0 1 116 2 L 116 114.2 A 2 2 0 0 1 114 116.2 L 73.828 116.2 A 2 2 0 0 1 72.414 115.614 L 64.586 107.786 A 2 2 0 0 0 63.172 107.2 L 2 107.2 A 2 2 0 0 1 0 105.2 Z M 2 103.2 L 2 4 A 2 2 0 0 1 4 2 L 112 2 A 2 2 0 0 1 114 4 L 114 112.2 A 2 2 0 0 1 112 114.2 L 74.828 114.2 A 2 2 0 0 1 73.414 113.614 L 65.586 105.786 A 2 2 0 0 0 64.172 105.2 L 4 105.2 A 2 2 0 0 1 2 103.2 Z M 8 105 L 104 105 A 2 2 0 0 0 106 103 L 106 7 A 2 2 0 0 0 104 5 L 8 5 A 2 2 0 0 0 6 7 L 6 103 A 2 2 0 0 0 8 105 Z M 57.5 105.2 A 1 1 0 0 0 58.5 104.2 L 58.5 93.914 A 1 1 0 0 0 58.207 93.207 L 53.714 88.714 A 1 1 0 0 0 53.203 88.441 L 44.304 86.661 A 1 1 0 0 1 43.5 85.68 L 43.5 76.414 A 1 1 0 0 0 43.207 75.707 L 34.793 67.293 A 1 1 0 0 0 34.086 67 L 13 67 A 1 1 0 0 0 12 68 L 12 104.2 A 1 1 0 0 0 13 105.2 M 79.132 74.841 L 95.679 78.359 L 83.017 93.448 L 89.602 79.948 L 79.132 74.841 Z M 66.536 87.89 L 79.119 94.027 L 85.256 81.444 L 72.673 75.307 L 66.536 87.89 Z M 96.332 104.416 L 105.331 93.692 L 94.607 84.693 L 85.608 95.417 L 96.332 104.416 Z M 9.292 44.304 L 6.381 57.998 L 20.075 60.908 L 22.986 47.214 L 9.292 44.304 Z M 10.331 39.413 L 24.026 42.324 L 26.936 28.629 L 13.242 25.719 L 10.331 39.413 Z M 14.282 20.828 L 27.976 23.739 L 30.887 10.045 L 17.193 7.134 L 14.282 20.828 Z M 25.954 57.302 L 39.648 60.212 L 42.558 46.518 L 28.864 43.608 L 25.954 57.302 Z M 29.904 38.717 L 43.598 41.628 L 46.509 27.934 L 32.815 25.023 L 29.904 38.717 Z M 33.854 20.132 L 47.548 23.043 L 50.459 9.349 L 36.765 6.438 L 33.854 20.132 Z M 45.526 56.606 L 59.22 59.517 L 62.131 45.823 L 48.437 42.912 L 45.526 56.606 Z M 49.476 38.021 L 63.17 40.932 L 66.081 27.238 L 52.387 24.327 L 49.476 38.021 Z M 53.427 19.436 L 67.121 22.347 L 70.031 8.653 L 56.337 5.742 L 53.427 19.436 Z M 63.123 65.202 L 76.817 68.113 L 79.728 54.419 L 66.034 51.508 L 63.123 65.202 Z M 67.073 46.618 L 80.768 49.528 L 83.678 35.834 L 69.984 32.923 L 67.073 46.618 Z M 71.024 28.033 L 84.718 30.944 L 87.629 17.249 L 73.935 14.339 L 71.024 28.033 Z M 81.115 71.94 L 94.809 74.851 L 97.72 61.157 L 84.026 58.246 L 81.115 71.94 Z M 85.066 53.356 L 98.76 56.266 L 101.671 42.572 L 87.977 39.662 L 85.066 53.356 Z M 102.71 37.682 L 105.621 23.987 L 91.927 21.077 L 89.016 34.771 L 102.71 37.682 Z M 47.627 83.275 L 61.321 86.186 L 64.232 72.492 L 50.538 69.581 L 47.627 83.275 Z M 68.794 90.104 L 75.984 93.611 L 82.998 79.23 L 75.808 75.723 L 68.794 90.104 Z M 13.058 41.015 L 20.883 42.678 L 24.21 27.028 L 16.385 25.364 L 13.058 41.015 Z M 17.008 22.43 L 24.834 24.093 L 28.16 8.443 L 20.335 6.779 L 17.008 22.43 Z M 32.63 40.319 L 40.456 41.982 L 43.782 26.332 L 35.957 24.668 L 32.63 40.319 Z M 36.581 21.734 L 44.406 23.397 L 47.733 7.747 L 39.907 6.084 L 36.581 21.734 Z M 52.203 39.623 L 60.028 41.286 L 63.355 25.636 L 55.529 23.973 L 52.203 39.623 Z M 56.153 21.038 L 63.978 22.701 L 67.305 7.051 L 59.48 5.388 L 56.153 21.038 Z M 69.8 48.219 L 77.625 49.883 L 80.952 34.232 L 73.127 32.569 L 69.8 48.219 Z M 73.75 29.635 L 81.576 31.298 L 84.902 15.648 L 77.077 13.984 L 73.75 29.635 Z M 87.792 54.957 L 95.617 56.621 L 98.944 40.97 L 91.119 39.307 L 87.792 54.957 Z M 65.85 66.804 L 73.675 68.468 L 77.001 52.817 L 69.176 51.154 L 65.85 66.804 Z M 83.842 73.542 L 91.667 75.206 L 94.994 59.555 L 87.169 57.892 L 83.842 73.542 Z M 50.353 84.877 L 58.179 86.541 L 61.505 70.89 L 53.68 69.227 L 50.353 84.877 Z M 7.69 47.03 L 6.027 54.855 L 21.677 58.182 L 23.34 50.357 L 7.69 47.03 Z M 28.68 58.904 L 36.505 60.567 L 39.832 44.917 L 32.007 43.253 L 28.68 58.904 Z M 48.252 58.208 L 56.078 59.871 L 59.404 44.221 L 51.579 42.557 L 48.252 58.208 Z M 104.312 34.955 L 105.975 27.13 L 90.325 23.803 L 88.662 31.628 L 104.312 34.955 Z M 99.027 102.761 L 104.169 96.633 L 91.912 86.348 L 86.77 92.476 L 99.027 102.761 Z M 49.95 99.5 L 49.95 90.5 L 44.95 90.5 L 44.95 99.5 L 49.95 99.5 Z M 59.85 105.2 L 59.85 104.4 L 33.85 104.4 L 33.85 105.2 M 9 8 m -3.5 0 a 3.5 3.5 0 0 1 7 0 a 3.5 3.5 0 0 1 -7 0 z M 90 8 m -3.5 0 a 3.5 3.5 0 0 1 7 0 a 3.5 3.5 0 0 1 -7 0 z M 103 74 m -3.5 0 a 3.5 3.5 0 0 1 7 0 a 3.5 3.5 0 0 1 -7 0 z M 69 102 m -3.5 0 a 3.5 3.5 0 0 1 7 0 a 3.5 3.5 0 0 1 -7 0 z M 41 69 m -3.5 0 a 3.5 3.5 0 0 1 7 0 a 3.5 3.5 0 0 1 -7 0 z M 9 102 m -3.5 0 a 3.5 3.5 0 0 1 7 0 a 3.5 3.5 0 0 1 -7 0 z M 111 8 m -3.5 0 a 3.5 3.5 0 0 1 7 0 a 3.5 3.5 0 0 1 -7 0 z M 111 111 m -3.5 0 a 3.5 3.5 0 0 1 7 0 a 3.5 3.5 0 0 1 -7 0 z M 45.099 104.35 L 50.901 104.35 A 1.349 1.349 0 0 0 50.901 101.652 L 45.099 101.65 A 1.349 1.349 0 0 0 45.099 104.348 Z M 44.35 105 L 44.35 105.8 L 39.45 105.8 L 39.45 107.5 L 36.25 107.5 L 36.25 105.8 L 31.35 105.8 L 31.35 105 M 47.7 98.25 L 49.8 98.25 A 0.25 0.25 0 0 0 50.05 98 L 50.05 92 A 0.25 0.25 0 0 0 49.8 91.75 L 47.7 91.75 A 0.25 0.25 0 0 0 47.45 92 L 47.45 98 A 0.25 0.25 0 0 0 47.7 98.25 Z M 9 8 m -2.5 0 a 2.5 2.5 0 0 1 5 0 a 2.5 2.5 0 0 1 -5 0 z M 90 8 m -2.5 0 a 2.5 2.5 0 0 1 5 0 a 2.5 2.5 0 0 1 -5 0 z M 103 74 m -2.5 0 a 2.5 2.5 0 0 1 5 0 a 2.5 2.5 0 0 1 -5 0 z M 69 102 m -2.5 0 a 2.5 2.5 0 0 1 5 0 a 2.5 2.5 0 0 1 -5 0 z M 41 69 m -2.5 0 a 2.5 2.5 0 0 1 5 0 a 2.5 2.5 0 0 1 -5 0 z M 9 102 m -2.5 0 a 2.5 2.5 0 0 1 5 0 a 2.5 2.5 0 0 1 -5 0 z M 111 8 m -2.5 0 a 2.5 2.5 0 0 1 5 0 a 2.5 2.5 0 0 1 -5 0 z M 111 111 m -2.5 0 a 2.5 2.5 0 0 1 5 0 a 2.5 2.5 0 0 1 -5 0 z M 9 8 m -1.5 0 a 1.5 1.5 0 0 1 3 0 a 1.5 1.5 0 0 1 -3 0 z M 90 8 m -1.5 0 a 1.5 1.5 0 0 1 3 0 a 1.5 1.5 0 0 1 -3 0 z M 103 74 m -1.5 0 a 1.5 1.5 0 0 1 3 0 a 1.5 1.5 0 0 1 -3 0 z M 69 102 m -1.5 0 a 1.5 1.5 0 0 1 3 0 a 1.5 1.5 0 0 1 -3 0 z M 41 69 m -1.5 0 a 1.5 1.5 0 0 1 3 0 a 1.5 1.5 0 0 1 -3 0 z M 9 102 m -1.5 0 a 1.5 1.5 0 0 1 3 0 a 1.5 1.5 0 0 1 -3 0 z M 111 8 m -1.5 0 a 1.5 1.5 0 0 1 3 0 a 1.5 1.5 0 0 1 -3 0 z M 111 111 m -1.5 0 a 1.5 1.5 0 0 1 3 0 a 1.5 1.5 0 0 1 -3 0 z M 49.95 96.35 A 0.25 0.25 0 0 1 49.7 96.6 L 47.8 96.6 A 0.25 0.25 0 0 1 47.55 96.35 L 47.55 93.65 A 0.25 0.25 0 0 1 47.8 93.4 L 49.7 93.4 A 0.25 0.25 0 0 1 49.95 93.65 M 46.85 105.2 L 46.85 106.2 L 41.1 106.2 L 41.1 107.2 M 34.6 107.2 L 34.6 106.2 L 28.85 106.2 L 28.85 105.2 M 38.65 105 L 38.65 106.8 L 37.05 106.8 L 37.05 105 M 47.55 94.2 L 49.15 94.2 L 49.15 95.8 L 47.55 95.8 M 41.85 105.2 41.85 104.4 M 28.2 107.2 28.2 105.2 M 18.2 105.2 18.2 107.2 M 52.25 103.001 52.25 102.999 M 43.75 102.999 43.75 103.001" vector-effect="non-scaling-stroke"/></g></svg>